<svg width="42" height="42" viewBox="0 0 42 42" fill="none" xmlns="http://www.w3.org/2000/svg">
<g clip-path="url(#clip0_127432_426)">
<path d="M41.4936 21.5231C40.9885 20.7091 40.1579 20.1469 39.2145 19.9807C38.2702 19.8144 37.2982 20.0588 36.538 20.6568L33.5484 23.0515C33.0543 22.5273 32.4004 22.1691 31.6803 22.0422C30.7369 21.8759 29.7641 22.1203 29.0094 22.7141L27.2541 24.1014H22.7463C22.0258 24.1014 21.3056 23.9283 20.6638 23.6009L19.0576 22.7813C17.7042 22.091 16.1857 21.7567 14.6688 21.8153C12.5647 21.8963 10.5506 22.7239 8.99773 24.1459L0.343253 32.0703C-0.0624196 32.4417 -0.115418 33.0621 0.221173 33.497L4.75279 39.3517C4.95989 39.6192 5.27215 39.7618 5.58944 39.7618C5.78158 39.7618 5.97568 39.7095 6.14922 39.6009L11.5989 36.193C11.9871 35.9502 12.4343 35.8219 12.8922 35.8219H25.5377C27.3335 35.8219 29.0959 35.2056 30.5005 34.0866L40.729 25.9367C42.0658 24.8724 42.3942 22.9749 41.4936 21.5231ZM30.3187 24.3744C30.6031 24.1504 30.9565 24.0617 31.3132 24.1245C31.528 24.1624 31.7221 24.2522 31.8847 24.384L30.1165 25.8005C29.959 25.5053 29.7555 25.2385 29.5177 25.0073L30.3187 24.3744ZM39.4118 24.2829L29.183 32.433C28.1514 33.255 26.857 33.7078 25.5379 33.7078H12.8922C12.0374 33.7078 11.2024 33.9475 10.4778 34.4005L5.83933 37.3012L2.48894 32.9725L10.4255 25.7052C11.6096 24.6211 13.1453 23.9898 14.7499 23.9282C15.9065 23.8834 17.0645 24.1385 18.0965 24.6648L19.7027 25.4844C20.6407 25.963 21.6931 26.2159 22.746 26.2159H27.2913C27.8895 26.2159 28.376 26.7026 28.376 27.3008C28.376 27.8748 27.9271 28.3506 27.3541 28.3838L14.7057 29.1183C14.1227 29.1521 13.6776 29.652 13.7114 30.2349C13.7454 30.8177 14.2425 31.2623 14.8282 31.229L27.4766 30.4946C28.7996 30.4178 29.8982 29.5413 30.3129 28.3521L37.8525 22.3126C38.1372 22.0886 38.491 21.9998 38.8473 22.0627C39.204 22.1255 39.5056 22.3297 39.6967 22.6376C40.0326 23.1789 39.9102 23.8859 39.4118 24.2829Z" fill="#006437"/>
<path d="M20.774 18.4131C25.2329 18.4131 28.8604 14.7856 28.8604 10.3267C28.8604 5.86779 25.2329 2.24023 20.774 2.24023C16.3151 2.24023 12.6875 5.86765 12.6875 10.3267C12.6875 14.7857 16.3151 18.4131 20.774 18.4131ZM20.774 4.3546C24.067 4.3546 26.746 7.03377 26.746 10.3267C26.746 13.6198 24.0669 16.2988 20.774 16.2988C17.4809 16.2988 14.8019 13.6196 14.8019 10.3267C14.8019 7.03363 17.481 4.3546 20.774 4.3546Z" fill="#006437"/>
<path d="M20.5861 12.2707C20.2729 12.2707 19.9403 12.1944 19.6495 12.0556C19.47 11.9699 19.261 11.9647 19.0764 12.041C18.8885 12.1184 18.7415 12.2725 18.6731 12.4633L18.6446 12.5428C18.5229 12.8832 18.6731 13.2604 18.9943 13.4202C19.292 13.5684 19.6563 13.6755 20.0288 13.7253V14.0276C20.0288 14.421 20.3489 14.741 20.752 14.741C21.1455 14.741 21.4654 14.4209 21.4654 14.0276V13.6418C22.404 13.3584 23.0062 12.5872 23.0062 11.6578C23.0062 10.3774 22.0617 9.82801 21.2407 9.49324C20.352 9.12546 20.2853 8.96465 20.2853 8.76132C20.2853 8.49367 20.518 8.3337 20.908 8.3337C21.1937 8.3337 21.451 8.38488 21.6953 8.49046C21.8733 8.56723 22.0703 8.56779 22.2499 8.49171C22.4289 8.41578 22.5711 8.26811 22.6401 8.08604L22.6686 8.01039C22.8042 7.6524 22.6367 7.25386 22.2874 7.10326C22.053 7.00215 21.7965 6.93139 21.5239 6.89238V6.62557C21.5239 6.2322 21.2038 5.91211 20.8104 5.91211C20.417 5.91211 20.0971 6.2322 20.0971 6.62557V6.98202C19.1866 7.25736 18.6246 7.97767 18.6246 8.87837C18.6246 10.056 19.5699 10.5855 20.4903 10.9464C21.2705 11.2628 21.3356 11.5146 21.3356 11.7259C21.3355 12.1281 20.9319 12.2707 20.5861 12.2707Z" fill="#006437"/>
</g>
<defs>
<clipPath id="clip0_127432_426">
<rect width="42" height="42" fill="white"/>
</clipPath>
</defs>
</svg>
