<svg width="42" height="42" viewBox="0 0 42 42" fill="none" xmlns="http://www.w3.org/2000/svg">
<g clip-path="url(#clip0_127432_433)">
<path fill-rule="evenodd" clip-rule="evenodd" d="M21 0C32.5976 0 42 9.4024 42 21C42 32.5976 32.5976 42 21 42C9.4024 42 0 32.5976 0 21C0 9.4024 9.4024 0 21 0Z" fill="white"/>
<path fill-rule="evenodd" clip-rule="evenodd" d="M20.9999 1.12321C31.9787 1.12321 40.8771 10.0216 40.8771 21.0004C40.8771 31.9792 31.9787 40.8776 20.9999 40.8776C10.0211 40.8776 1.12272 31.9792 1.12272 21.0004C1.12272 10.0244 10.0211 1.12321 20.9999 1.12321ZM20.9999 0.599609C32.2671 0.599609 41.4007 9.73321 41.4007 21.0004C41.4007 32.2676 32.2671 41.404 20.9999 41.404C9.73272 41.404 0.599121 32.2704 0.599121 21.0004C0.599121 9.73321 9.73272 0.599609 20.9999 0.599609Z" fill="#006437"/>
<path fill-rule="evenodd" clip-rule="evenodd" d="M31.0098 6.55416L31.245 7.10296L30.8418 7.54256L31.4326 7.48656L31.7238 8.00736L31.8526 7.42496L32.435 7.30736L31.9226 7.00496L31.9926 6.41136L31.5474 6.80616L31.0098 6.55416ZM32.7458 8.49736L32.9082 9.21416L32.323 9.65376L33.051 9.71816L33.2862 10.4154L33.5746 9.73776L34.3054 9.72936L33.7538 9.24496L33.9694 8.54216L33.3422 8.92016L32.7458 8.49736ZM34.2298 10.9894L34.241 11.9386L33.3814 12.3334L34.2802 12.6162L34.3866 13.5598L34.9326 12.787L35.8566 12.9774L35.2938 12.2158L35.7586 11.3898L34.8654 11.6922L34.2298 10.9894ZM35.2938 14.1758L35.0082 15.3546L33.821 15.5674L34.8458 16.2058L34.6806 17.407L35.6018 16.6258L36.6854 17.155L36.229 16.0322L37.0662 15.1586L35.865 15.2482L35.2938 14.1758ZM6.70305 14.1758L6.99145 15.3546L8.17865 15.5674L7.15385 16.2058L7.31905 17.407L6.39785 16.6258L5.31425 17.155L5.77065 16.0322L4.93345 15.1586L6.13465 15.2482L6.70305 14.1758ZM7.76705 10.9894L7.75585 11.9386L8.61545 12.3334L7.71665 12.6162L7.61025 13.5598L7.06425 12.787L6.14025 12.9774L6.70305 12.2158L6.23825 11.3898L7.13145 11.6922L7.76705 10.9894ZM9.25105 8.49736L9.08865 9.21416L9.67385 9.65376L8.94585 9.71816L8.71065 10.4154L8.42225 9.73776L7.69145 9.72936L8.24305 9.24496L8.02745 8.54216L8.65465 8.92016L9.25105 8.49736ZM10.987 6.55416L10.7518 7.10296L11.155 7.54256L10.5642 7.48656L10.273 8.00736L10.1442 7.42496L9.56185 7.30736L10.0742 7.00496L10.0042 6.41136L10.4494 6.80616L10.987 6.55416ZM33.3842 20.0222C33.541 19.6834 33.681 19.3278 33.8154 18.961C33.4458 18.8966 33.149 18.8434 32.8634 18.793C32.169 18.681 31.7098 18.9106 31.483 19.2158C31.2562 19.521 31.1162 19.8094 30.951 20.2266C30.7858 20.6438 30.797 21.4054 31.9702 21.929C32.9922 22.4022 33.7594 22.8726 35.3806 21.4866C36.3326 20.7222 36.6938 20.9798 37.041 21.0526C37.5394 21.2206 37.5898 21.4222 37.4946 21.943C37.363 22.5898 36.635 22.2454 36.285 22.1082C36.1506 22.6206 36.0106 23.0154 35.7838 23.5698C35.9966 23.6594 36.2598 23.7798 36.4978 23.8806C37.5786 24.3146 38.7994 24.0794 39.0822 22.769C39.253 21.8898 39.1998 21.4614 39.1998 21.3102C39.183 20.4954 38.5866 19.773 37.5506 19.5882C36.5398 19.3866 35.865 19.3306 34.4538 20.3918C33.7286 20.9294 33.6082 21.131 32.9502 20.8706C32.6002 20.739 32.2642 20.6186 32.4602 20.2098C32.6086 19.8934 32.7654 19.8402 33.3842 20.0222ZM31.3822 23.9842L34.5574 25.2862C34.311 25.779 34.1906 26.031 33.849 26.5406L31.3822 23.9842ZM29.6798 21.9514C29.411 22.2342 29.1338 22.5282 28.8146 22.8054L35.711 31.4602C36.1254 30.8946 36.5482 30.2142 36.9038 29.5814L35.0166 27.6998C35.4226 27.0418 35.599 26.6638 35.9294 25.8938L38.0742 26.829C38.315 26.2074 38.5026 25.6362 38.6314 25.037L29.6798 21.9514ZM28.9994 29.1166C29.7582 28.6238 30.2174 28.2374 29.2822 27.1398L28.2378 25.8238C27.5994 24.953 27.2298 25.4234 26.751 25.6446L28.9994 29.1166ZM30.601 36.3098L25.0934 25.0482C25.8018 24.7878 26.3982 24.4938 26.9974 24.1382C27.7562 23.651 28.389 24.1466 29.0246 24.7318L30.6346 26.2298C32.1606 27.6494 31.8834 28.7078 31.5446 29.0494L35.5486 31.6786C35.1146 32.2778 34.689 32.8042 34.2046 33.3026L30.2958 30.147L29.8394 30.455L32.757 34.7194C32.127 35.2766 31.3262 35.859 30.601 36.3098ZM23.6402 25.4878C24.0406 25.3926 24.3038 25.3226 24.6818 25.1966L29.8254 36.7774C29.1282 37.1582 28.2742 37.581 27.4118 37.903L23.6402 25.4878ZM23.251 25.569C22.4446 25.7118 21.9826 25.7706 20.9298 25.779L20.6582 39.0538C22.7274 39.1098 24.833 38.771 26.6166 38.1774L26.023 35.9346C25.0682 36.2398 24.1358 36.4694 23.209 36.5506L22.6798 32.0174C23.6402 31.9138 24.1638 31.799 24.847 31.575L24.3906 29.8866C23.7522 30.0714 23.1418 30.1694 22.4726 30.245L22.103 27.0418C22.6042 27.0278 23.1278 26.941 23.587 26.8234L23.251 25.569ZM10.7462 35.8338L16.671 24.9418C17.0182 25.0846 17.4158 25.2134 17.7658 25.317L17.1162 30.9282C17.2926 30.5222 19.317 25.6726 19.317 25.653C19.625 25.7034 20.213 25.7566 20.4706 25.7678L19.6754 39.009C18.9978 38.9894 17.9506 38.8326 17.2114 38.659L18.3398 31.9754L15.495 36.5394L15.4222 30.9898C15.187 31.6926 12.835 37.0742 12.835 37.0938C11.9978 36.6626 11.309 36.2314 10.7462 35.8338ZM6.97185 32.3114L14.6214 23.8694C14.5934 23.861 15.313 24.3062 15.6602 24.4826L9.75225 32.317C10.371 32.9302 10.6034 33.1234 11.3566 33.689L10.287 35.509C9.16425 34.6998 7.68865 33.2634 6.97185 32.3114ZM11.029 24.1382L7.61305 25.5634C7.87065 26.0674 8.11705 26.4594 8.45865 26.913L11.029 24.1382ZM12.5186 22.111C12.7958 22.3994 13.1374 22.7242 13.4762 23.0098L6.73105 32.009C6.29985 31.4462 5.85465 30.7798 5.48785 30.161L7.37785 28.1226C6.96065 27.4954 6.59385 26.9606 6.25225 26.1626L4.06545 27.1258C3.82185 26.4902 3.61745 25.7874 3.51665 25.3002L12.5186 22.111ZM9.45545 19.9102L7.03065 20.5682C7.05865 20.781 7.09785 20.9406 7.16225 21.1534C7.33865 21.733 7.61025 21.7246 8.29065 21.4754L9.17825 21.145C9.53385 20.9854 9.88665 20.8258 9.70185 20.4226C9.57865 20.2014 9.45545 19.899 9.45545 19.9102ZM10.2198 18.5522C10.3738 18.9554 10.8302 19.8318 11.0178 20.123C11.477 20.8286 11.1746 21.6322 10.315 22.0718L8.55665 22.9678C7.71665 23.385 6.12625 23.2002 5.82665 22.0746C5.69225 21.691 5.63065 21.3858 5.53825 20.9742L3.02385 21.6742C2.96505 20.7642 2.95665 20.6046 3.00985 19.829L10.2198 18.5522ZM20.9998 3.49096C26.8322 3.49096 31.5614 8.22016 31.5614 14.0526C31.5614 19.885 26.8322 24.6114 20.9998 24.6114C15.1674 24.6114 10.4382 19.885 10.4382 14.0526C10.4382 8.22016 15.1674 3.49096 20.9998 3.49096ZM20.9998 1.69336C31.6622 1.69336 40.3058 10.337 40.3058 20.9994C40.3058 31.6618 31.6622 40.3054 20.9998 40.3054C10.3374 40.3054 1.69385 31.6618 1.69385 20.9994C1.69385 10.337 10.3374 1.69336 20.9998 1.69336Z" fill="#006437"/>
<path fill-rule="evenodd" clip-rule="evenodd" d="M28.8178 8.44685C24.237 7.37165 21.4398 4.89085 21.003 4.45125C20.5746 4.88805 17.6878 7.40525 13.1994 8.44685C13.1098 18.2553 20.3618 23.2953 21.0002 23.7265C21.6386 23.3009 28.8822 18.4373 28.8178 8.44685ZM21.115 4.28885C23.6238 6.54005 26.4882 7.70205 28.8738 8.26485C27.1154 5.88205 24.2986 4.32805 21.115 4.28885ZM13.121 8.27045C15.4338 7.73005 18.273 6.53725 20.8798 4.29165C17.6962 4.32805 14.8794 5.88485 13.121 8.27045ZM20.8322 23.8609C15.8706 20.4029 12.8578 14.2877 12.995 8.44405C11.8722 10.0373 11.2142 11.9777 11.2142 14.0749C11.2114 19.4257 15.5038 23.7713 20.8322 23.8609ZM29.011 8.45525C29.1538 14.3325 26.2502 20.3553 21.171 23.8609C26.4966 23.7685 30.7862 19.4229 30.7862 14.0749C30.7862 11.9833 30.1282 10.0457 29.011 8.45525ZM21.0002 4.03125C26.533 4.03125 31.0214 8.51685 31.0214 14.0525C31.0214 19.5853 26.5358 24.0709 21.0002 24.0709C15.4674 24.0709 10.979 19.5853 10.979 14.0525C10.979 8.51685 15.4646 4.03125 21.0002 4.03125Z" fill="#006437"/>
<path d="M18.1581 12.2104V9.53637C18.1581 9.01277 17.5561 8.87277 17.0661 8.90357C17.5477 8.13637 18.2617 7.87877 18.9477 8.46117C19.4069 7.81717 20.5325 6.92677 21.5881 6.96037C26.3257 7.03317 26.5301 13.8316 23.1785 15.0496C19.9361 16.2284 19.4349 12.0648 21.4621 12.2076C22.7837 12.3224 22.3665 14.5288 21.1793 13.8344C21.6413 15.1868 24.6093 13.8036 23.0973 11.1408C24.0997 10.1188 23.2289 8.07757 21.7533 8.05797C20.5017 8.04117 19.9781 9.21437 19.9725 10.0096V17.5388C19.9585 18.8716 20.1461 19.9104 21.2465 20.4928C20.1349 21.0136 18.9785 20.2576 18.7741 19.118C18.2953 19.3196 17.7941 19.1796 17.3909 18.5328C17.8025 18.4796 18.1637 18.208 18.1581 17.5724V13.2716L17.6065 12.7508L18.1581 12.2104ZM17.4357 8.72717C17.8109 8.71317 18.3513 8.98477 18.3513 9.53357V12.2832L17.8753 12.7508L18.3513 13.1904V17.6312C18.3513 17.942 18.2813 18.4292 17.7297 18.642C18.1301 19.1264 18.5081 19.0396 18.9449 18.7988C19.0373 20.1372 20.1041 20.5796 20.8097 20.4284C19.8857 19.7508 19.7877 18.6756 19.7793 17.7432V9.98997C19.7793 9.22557 20.3057 7.87317 21.7589 7.87597C23.3801 7.87877 24.2789 10.0068 23.3269 11.1408C24.9845 14.2068 21.0281 15.7468 20.9077 13.434C22.1957 14.5372 22.4981 12.4764 21.4313 12.3896C19.6953 12.2468 20.2273 16.0296 23.1869 14.8424C26.2529 13.588 26.1129 7.25717 21.5881 7.13677C20.5465 7.10877 19.5945 7.93477 18.9701 8.74117C18.4885 8.26237 17.9873 8.14197 17.4357 8.72717ZM21.7533 22.1924H20.2497C20.6277 22.5032 20.8993 22.6936 21.0057 22.758C21.1009 22.6936 21.3725 22.5032 21.7533 22.1924ZM22.4981 21.5456H19.5133C19.7457 21.764 19.9613 21.9516 20.1545 22.1112H21.8541C22.0445 21.9516 22.2629 21.764 22.4981 21.5456ZM23.1505 20.91H18.8665C19.0597 21.1116 19.2473 21.2964 19.4265 21.4644H22.5849C22.7641 21.2964 22.9545 21.1116 23.1505 20.91ZM23.1449 13.7168H23.3745C23.3577 13.7448 23.3437 13.77 23.3269 13.7952H23.0805C23.1029 13.77 23.1225 13.742 23.1449 13.7168ZM22.0977 13.7168H23.1449C23.1225 13.7448 23.1029 13.77 23.0805 13.7952H22.0277C22.0529 13.77 22.0753 13.7448 22.0977 13.7168ZM22.0137 13.7168H22.0977C22.0753 13.7448 22.0529 13.7728 22.0277 13.7952H21.8765C21.9297 13.7784 21.9745 13.7504 22.0137 13.7168ZM23.4641 13.056H23.6041C23.5985 13.084 23.5929 13.1092 23.5901 13.1372H23.4417C23.4501 13.1092 23.4585 13.084 23.4641 13.056ZM22.2797 13.056H23.4641C23.4585 13.0812 23.4501 13.1092 23.4417 13.1372H22.2797V13.056ZM22.1733 13.056H22.2797C22.2825 13.0812 22.2825 13.1092 22.2825 13.1372H22.1873C22.1817 13.1092 22.1789 13.084 22.1733 13.056ZM20.3057 13.056H20.3925C20.3841 13.0812 20.3785 13.1092 20.3729 13.1372H20.2889C20.2945 13.1092 20.3001 13.084 20.3057 13.056ZM19.9725 13.056H20.3057C20.3001 13.0812 20.2945 13.1092 20.2889 13.1372H19.9753L19.9725 13.056ZM19.8437 13.056H19.9753V13.1372H19.8437V13.056ZM23.5173 12.4176H23.6293C23.6321 12.4456 23.6321 12.4708 23.6349 12.496H23.5201C23.5229 12.4708 23.5201 12.4456 23.5173 12.4176ZM21.9913 12.4176H23.5201C23.5229 12.4456 23.5229 12.4708 23.5257 12.496H22.0697L21.9913 12.4176ZM21.6861 12.4176H21.9885C22.0165 12.4428 22.0417 12.468 22.0669 12.496H21.8205C21.7813 12.468 21.7365 12.4428 21.6861 12.4176ZM20.6949 12.4176H20.9833C20.9217 12.44 20.8657 12.468 20.8153 12.496H20.6081C20.6361 12.4708 20.6641 12.4428 20.6949 12.4176ZM19.9725 12.4176H20.6949C20.6641 12.4428 20.6333 12.468 20.6053 12.496H19.9725V12.4176ZM19.8437 12.4176H19.9725V12.496H19.8437V12.4176ZM23.3857 11.768H23.5033C23.5117 11.796 23.5201 11.8212 23.5257 11.8492H23.4109C23.4025 11.824 23.3941 11.796 23.3857 11.768ZM19.9725 11.768H23.3829C23.3913 11.796 23.3997 11.8212 23.4081 11.8492H19.9725V11.768ZM19.8437 11.768H19.9725V11.8492H19.8437V11.768ZM23.1141 11.1212H23.2765C23.2681 11.1296 23.2625 11.138 23.2541 11.1464C23.2625 11.166 23.2709 11.1828 23.2793 11.2024H23.1309C23.1197 11.18 23.1085 11.1604 23.0973 11.138L23.1141 11.1212ZM19.9725 11.1212H23.1113C23.1057 11.1268 23.1001 11.1324 23.0973 11.138C23.1085 11.1604 23.1197 11.18 23.1309 11.2024H19.9725V11.1212ZM19.8465 11.1212H19.9753V11.2024H19.8465V11.1212ZM23.4753 10.4716H23.6041C23.5985 10.4968 23.5929 10.5248 23.5845 10.55H23.4529C23.4585 10.5248 23.4669 10.4996 23.4753 10.4716ZM19.9725 10.4716H23.4725C23.4669 10.4968 23.4585 10.5248 23.4501 10.55H19.9725V10.4716ZM19.8465 10.4716H19.9725V10.55H19.8465V10.4716ZM23.5173 9.82477H23.6321C23.6349 9.84997 23.6377 9.87797 23.6405 9.90317H23.5257C23.5229 9.87797 23.5201 9.85277 23.5173 9.82477ZM19.9837 9.82477H23.5173C23.5201 9.84997 23.5229 9.87797 23.5257 9.90317H19.9781C19.9781 9.87797 19.9809 9.85277 19.9837 9.82477ZM19.8521 9.82477H19.9837C19.9809 9.85277 19.9781 9.87797 19.9781 9.90317H19.8493C19.8493 9.87797 19.8493 9.85277 19.8521 9.82477ZM23.3353 9.17517H23.4585C23.4697 9.20037 23.4809 9.22837 23.4921 9.25637H23.3717C23.3605 9.22837 23.3493 9.20037 23.3353 9.17517ZM20.1461 9.17517H23.3353C23.3465 9.20037 23.3577 9.22837 23.3689 9.25637H20.1153C20.1237 9.22837 20.1349 9.20317 20.1461 9.17517ZM20.0089 9.17517H20.1461C20.1349 9.20317 20.1237 9.22837 20.1153 9.25637H19.9781C19.9865 9.22837 19.9977 9.20317 20.0089 9.17517ZM22.8761 8.52837H23.0609C23.0833 8.55357 23.1057 8.58157 23.1253 8.60677H22.9545C22.9293 8.58157 22.9041 8.55357 22.8761 8.52837ZM20.5633 8.52837H22.8761C22.9041 8.55357 22.9293 8.58157 22.9545 8.60677H20.4877C20.5157 8.58157 20.5381 8.55357 20.5633 8.52837ZM20.4345 8.52837H20.5661C20.5409 8.55357 20.5157 8.58157 20.4933 8.60677H20.3645C20.3841 8.58157 20.4093 8.55357 20.4345 8.52837ZM21.1317 15.0132H21.6329C21.7729 15.0552 21.9213 15.0832 22.0781 15.0916H21.2857C21.2353 15.0664 21.1821 15.0412 21.1317 15.0132ZM19.9725 15.0132H21.1317C21.1821 15.0412 21.2353 15.0692 21.2885 15.0916H19.9725V15.0132ZM19.8381 15.0132H19.9725V15.0916H19.8381V15.0132ZM20.4961 14.3636H20.6921C20.7117 14.3916 20.7341 14.4168 20.7565 14.4448H20.5437C20.5269 14.4168 20.5129 14.3888 20.4961 14.3636ZM19.9725 14.3636H20.4961C20.5101 14.3916 20.5269 14.4168 20.5437 14.4448H19.9725V14.3636ZM19.8409 14.3636H19.9753V14.4448H19.8409V14.3636ZM20.2777 13.7168H20.3869C20.3925 13.742 20.4009 13.77 20.4065 13.7952H20.2889C20.2861 13.77 20.2805 13.742 20.2777 13.7168ZM19.9725 13.7168H20.2777C20.2805 13.742 20.2861 13.77 20.2917 13.7952H19.9725V13.7168ZM19.8409 13.7168H19.9725V13.7952H19.8409V13.7168ZM23.2317 7.31317H23.1001C23.0245 7.28517 22.9489 7.25717 22.8705 7.23197H23.0441C23.1085 7.25717 23.1701 7.28237 23.2317 7.31317ZM24.1865 7.95997H24.1473C24.1193 7.93197 24.0885 7.90677 24.0577 7.87877H24.0969C24.1277 7.90397 24.1585 7.93197 24.1865 7.95997ZM24.7241 8.60957H24.6989C24.6821 8.58437 24.6653 8.55637 24.6457 8.53117H24.6709C24.6877 8.55637 24.7073 8.58157 24.7241 8.60957ZM25.0685 9.25637H25.0433C25.0321 9.22837 25.0209 9.20317 25.0069 9.17517H25.0321C25.0461 9.20317 25.0573 9.22837 25.0685 9.25637ZM25.2925 9.90597H25.2617C25.2561 9.88077 25.2477 9.85277 25.2393 9.82757H25.2701C25.2757 9.85277 25.2841 9.87797 25.2925 9.90597ZM25.4157 10.5528H25.3765C25.3737 10.5276 25.3709 10.4996 25.3653 10.4744H25.4017C25.4073 10.4996 25.4101 10.5248 25.4157 10.5528ZM25.4549 11.2024H25.4101V11.1212H25.4549V11.2024ZM25.4157 11.8492H25.3653C25.3681 11.824 25.3737 11.796 25.3765 11.768H25.4269C25.4213 11.796 25.4185 11.8212 25.4157 11.8492ZM25.2925 12.4988H25.2337C25.2421 12.4736 25.2477 12.4456 25.2561 12.4204H25.3121C25.3037 12.4456 25.2981 12.4708 25.2925 12.4988ZM25.0741 13.1372H25.0097C25.0209 13.1092 25.0321 13.084 25.0433 13.056H25.1077C25.0965 13.084 25.0853 13.1092 25.0741 13.1372ZM24.7241 13.7952H24.6457C24.6625 13.77 24.6821 13.742 24.6989 13.7168H24.7773C24.7577 13.742 24.7409 13.77 24.7241 13.7952ZM24.1725 14.442H24.0549C24.0857 14.4168 24.1165 14.3888 24.1473 14.3608H24.2593C24.2313 14.3888 24.2033 14.4168 24.1725 14.442ZM23.0469 15.0916H22.4001C22.5569 15.0804 22.7193 15.0552 22.8929 15.0132H23.2681C23.2401 15.0244 23.2093 15.0356 23.1813 15.0468C23.1365 15.0636 23.0917 15.0776 23.0469 15.0916ZM19.9725 15.7384H19.8353V15.6572H19.9697L19.9725 15.7384ZM19.9725 16.388H19.8353V16.3068H19.9725V16.388ZM19.9725 17.0348H19.8353V16.9536H19.9725V17.0348ZM19.9725 17.6704H19.8353V17.5892H19.9725V17.6704ZM19.9949 18.3172H19.8353L19.8325 18.306V18.2388H19.9893C19.9921 18.264 19.9921 18.292 19.9949 18.3172ZM20.0929 18.9668H19.9529C19.9445 18.9416 19.9389 18.9136 19.9333 18.8884H20.0761C20.0817 18.9136 20.0873 18.9388 20.0929 18.9668ZM20.3337 19.6136H20.1965C20.1825 19.5884 20.1713 19.5604 20.1573 19.5324H20.2917C20.3057 19.5604 20.3197 19.5884 20.3337 19.6136ZM20.8909 20.2632H20.6781C20.6501 20.238 20.6221 20.21 20.5969 20.182H20.7957C20.8237 20.21 20.8573 20.238 20.8909 20.2632ZM19.3481 20.1848H19.5217C19.5497 20.2128 19.5805 20.238 19.6113 20.266H19.4405C19.4069 20.238 19.3761 20.21 19.3481 20.1848ZM18.9001 19.5324H19.0737C19.0849 19.5576 19.0989 19.5856 19.1101 19.6136H18.9337C18.9225 19.5884 18.9113 19.5604 18.9001 19.5324ZM17.6709 18.8856H17.8473C17.8893 18.9136 17.9285 18.9388 17.9733 18.964H17.7605C17.7325 18.9416 17.7017 18.9164 17.6709 18.8856ZM17.9593 18.236H18.1917C18.1889 18.2584 18.1833 18.278 18.1805 18.2976C18.1749 18.3032 18.1721 18.3116 18.1665 18.3172H17.8837C17.9089 18.292 17.9341 18.2668 17.9593 18.236ZM18.1581 17.5892H18.2085V17.6704H18.1581V17.5892ZM18.1581 16.9564H18.2085V17.0376H18.1581V16.9564ZM18.1581 16.3096H18.2085V16.3908H18.1581V16.3096ZM18.1581 15.66H18.2113V15.7412H18.1581V15.66ZM18.1581 15.0132H18.2113V15.0916H18.1581V15.0132ZM18.1581 14.3636H18.2113V14.4448H18.1581V14.3636ZM18.1581 13.7168H18.2141V13.7952H18.1581V13.7168ZM17.9285 13.056H18.0461L18.1161 13.1372H18.0125L17.9285 13.056ZM18.1581 11.768H18.2113V11.8492H18.1581V11.768ZM18.1581 11.1212H18.2141V11.2024H18.1581V11.1212ZM18.1581 10.4716H18.2141V10.55H18.1581V10.4716ZM18.1581 9.82477H18.2169V9.90317H18.1581V9.82477ZM18.0265 9.17517H18.1973C18.2057 9.20037 18.2113 9.22837 18.2141 9.25637H18.0853C18.0685 9.22557 18.0489 9.20037 18.0265 9.17517ZM17.3601 8.52837H17.4917C17.4665 8.55357 17.4441 8.58157 17.4189 8.60677H17.2845C17.3097 8.58157 17.3349 8.55357 17.3601 8.52837ZM19.4825 7.87877H19.7121C19.6841 7.90397 19.6533 7.93197 19.6253 7.95997H19.3929C19.4237 7.93197 19.4517 7.90397 19.4825 7.87877ZM20.4457 7.23197H20.6641C20.6081 7.25717 20.5493 7.28237 20.4961 7.31317H20.2889C20.3393 7.28517 20.3925 7.25717 20.4457 7.23197ZM22.6269 6.66077H19.3341C19.0485 6.84557 18.7293 7.03597 18.3821 7.23197H20.4457C20.3925 7.25717 20.3393 7.28517 20.2889 7.31317H18.2365C17.8865 7.50357 17.5085 7.69397 17.1025 7.87877H19.4825C19.4517 7.90397 19.4237 7.93197 19.3957 7.95997H16.9261C16.4697 8.16157 15.9825 8.35477 15.4673 8.52837H17.3601C17.3349 8.55357 17.3097 8.58157 17.2845 8.60677H15.2237C14.8317 8.73277 14.4257 8.84757 14.0029 8.94837V9.17237H18.0237C18.0461 9.19757 18.0657 9.22277 18.0825 9.25357H14.0057C14.0085 9.44397 14.0141 9.63437 14.0225 9.82197H18.1581V9.90037H14.0281C14.0393 10.0908 14.0505 10.2812 14.0673 10.4688H18.1581V10.5472H14.0729C14.0897 10.7404 14.1121 10.9308 14.1345 11.1156H18.1581V11.1968H14.1457C14.1709 11.3872 14.1989 11.5776 14.2269 11.7624H18.1581V11.8436H14.2409C14.2745 12.0368 14.3081 12.2272 14.3473 12.4148H18.2169L18.1357 12.4932H14.3641C14.4033 12.6808 14.4453 12.8684 14.4901 13.0504H17.9313L18.0153 13.1316H14.5097C14.5573 13.3276 14.6105 13.5208 14.6665 13.7112H18.1609V13.7896H14.6889C14.7449 13.9828 14.8037 14.1704 14.8681 14.3552H18.1609V14.4364H14.8933C14.9605 14.6296 15.0277 14.82 15.0977 15.0076H18.1581V15.086H15.1313C15.2069 15.2792 15.2825 15.4668 15.3637 15.6516H18.1609V15.7328H15.3973C15.4813 15.926 15.5681 16.1164 15.6577 16.3012H18.1609V16.3824H15.6969C15.7921 16.5756 15.8873 16.766 15.9853 16.948H18.1581V17.0292H16.0273C16.1309 17.2168 16.2345 17.4016 16.3409 17.5836H18.1581C18.1581 17.6116 18.1581 17.6368 18.1553 17.6648H16.3885C16.5033 17.858 16.6209 18.0484 16.7413 18.2304H17.9593C17.9369 18.2584 17.9089 18.2864 17.8837 18.3116H16.7945C16.9233 18.5076 17.0549 18.698 17.1865 18.8828H17.6737C17.7017 18.9108 17.7325 18.9388 17.7633 18.9612H17.2425C17.3853 19.1572 17.5281 19.3476 17.6681 19.5268H18.8973C18.9085 19.5548 18.9197 19.58 18.9337 19.608H17.7325C17.8893 19.8068 18.0489 19.9972 18.2057 20.1792H19.3481C19.3761 20.2072 19.4069 20.2324 19.4377 20.2604H18.2729C18.4493 20.462 18.6201 20.6496 18.7909 20.826H23.2289C23.3997 20.6496 23.5733 20.4592 23.7497 20.2604H20.8909C20.8573 20.2352 20.8237 20.2072 20.7929 20.1792H23.8197C23.9765 20 24.1361 19.8096 24.2957 19.608H20.3337C20.3197 19.5828 20.3057 19.5548 20.2917 19.5268H24.3545C24.4973 19.3448 24.6429 19.1572 24.7857 18.9612H20.0929C20.0873 18.936 20.0817 18.908 20.0761 18.8828H24.8445C24.9761 18.698 25.1077 18.5104 25.2365 18.3116H19.9949C19.9921 18.2864 19.9893 18.2584 19.9893 18.2304H25.2897C25.4101 18.0456 25.5277 17.858 25.6425 17.6648H19.9725V17.5836H25.6901C25.7965 17.4044 25.9001 17.2196 26.0037 17.0292H19.9725V16.948H26.0457C26.1437 16.7632 26.2417 16.5756 26.3341 16.3824H19.9725V16.3012H26.3705C26.4601 16.1164 26.5469 15.926 26.6309 15.7328H19.9725V15.6516H26.6645C26.7429 15.4668 26.8213 15.2764 26.8941 15.086H23.0469C23.0917 15.072 23.1365 15.058 23.1813 15.0412C23.2093 15.03 23.2401 15.0188 23.2681 15.0076H26.9277C26.9977 14.82 27.0649 14.6324 27.1293 14.4364H24.1725C24.2005 14.4112 24.2313 14.3832 24.2565 14.3552H27.1545C27.2161 14.1704 27.2749 13.98 27.3309 13.7896H24.7213C24.7381 13.7644 24.7577 13.7364 24.7745 13.7112H27.3561C27.4093 13.5208 27.4625 13.3276 27.5101 13.1316H25.0769C25.0881 13.1064 25.0993 13.0784 25.1105 13.0504H27.5325C27.5782 12.8657 27.6192 12.6799 27.6557 12.4932H25.2925C25.2981 12.468 25.3065 12.44 25.3121 12.4148H27.6697C27.7061 12.2272 27.7425 12.0368 27.7733 11.8436H25.4157C25.4185 11.8184 25.4213 11.7904 25.4241 11.7624H27.7873C27.8181 11.5748 27.8433 11.3872 27.8685 11.1968H25.4549V11.1156H27.8769C27.8993 10.928 27.9189 10.7376 27.9357 10.5472H25.4157C25.4129 10.522 25.4073 10.494 25.4045 10.4688H27.9413C27.9553 10.2812 27.9693 10.0936 27.9777 9.90037H25.2897C25.2813 9.87517 25.2757 9.84717 25.2673 9.82197H27.9805C27.9889 9.63437 27.9945 9.44397 27.9973 9.25357H25.0685C25.0573 9.22557 25.0461 9.20037 25.0321 9.17237H28.0001V8.94837C27.5661 8.84757 27.1517 8.72997 26.7541 8.60677H24.7241C24.7073 8.58157 24.6877 8.55357 24.6709 8.52837H26.5077C25.9813 8.35197 25.4857 8.15877 25.0293 7.95997H24.1865C24.1585 7.93197 24.1277 7.90677 24.0997 7.87877H24.8501C24.4413 7.69397 24.0633 7.50357 23.7161 7.31317H23.2345C23.1729 7.28517 23.1113 7.25717 23.0469 7.23197H23.5705C23.2233 7.03877 22.9097 6.84557 22.6269 6.66077ZM21.7169 6.01397H20.2637C20.0397 6.18477 19.7681 6.37517 19.4545 6.58237H22.5037C22.2013 6.37797 21.9353 6.18477 21.7169 6.01397ZM20.3701 5.93557H21.6161C21.2997 5.68357 21.0897 5.49037 21.0001 5.39797C20.9133 5.49037 20.6977 5.68357 20.3701 5.93557ZM28.1905 8.80837C28.3641 14.218 25.5865 19.8516 21.0001 23.0268C16.5229 19.902 13.6445 14.1844 13.8153 8.81117C15.8957 8.32677 18.6453 7.25997 21.0001 5.13477C23.2653 7.26557 26.0429 8.30437 28.1905 8.80837Z" fill="#006437"/>
</g>
<defs>
<clipPath id="clip0_127432_433">
<rect width="42" height="42" fill="white"/>
</clipPath>
</defs>
</svg>
